<?xml version="1.0" encoding="UTF-8" standalone="no"?>
<!DOCTYPE svg PUBLIC "-//W3C//DTD SVG 1.1//EN" "http://www.w3.org/Graphics/SVG/1.1/DTD/svg11.dtd">
<svg width="100%" height="100%" viewBox="0 0 170 86" version="1.1" xmlns="http://www.w3.org/2000/svg" xmlns:xlink="http://www.w3.org/1999/xlink" xml:space="preserve" xmlns:serif="http://www.serif.com/" style="fill-rule:evenodd;clip-rule:evenodd;stroke-linejoin:round;stroke-miterlimit:2;">
    <g transform="matrix(0.1,0,0,-0.1,-132,175)">
        <g transform="matrix(0.735849,1.15533e-18,1.15533e-18,0.745283,596.792,-553.113)">
            <path d="M1390,3050L1390,2755L1545,2600L1700,2755L1700,3050L1390,3050Z" style="fill:rgb(220,60,77);fill-rule:nonzero;"/>
        </g>
        <g transform="matrix(1.55166,-2.70872e-17,-2.70872e-17,1.33048,-1270.17,-2345.41)">
            <path d="M2220,2864C2214,2849 2211,2787 2212,2726C2215,2620 2216,2615 2237,2612C2259,2609 2259,2612 2262,2717L2265,2825L2325,2720C2383,2618 2386,2615 2420,2615L2455,2615L2461,2891L2438,2888C2416,2885 2415,2880 2410,2785L2405,2685L2349,2785C2298,2876 2290,2885 2262,2888C2235,2891 2228,2887 2220,2864Z" style="fill-rule:nonzero;"/>
        </g>
        <g transform="matrix(0.735849,1.15533e-18,1.15533e-18,0.745283,596.792,-553.113)">
            <path d="M1010,2670L1010,2360L1305,2360L1460,2515L1305,2670L1010,2670Z" style="fill:rgb(220,60,77);fill-rule:nonzero;"/>
        </g>
        <g transform="matrix(0.735849,1.15533e-18,1.15533e-18,0.745283,596.792,-553.113)">
            <path d="M1785,2670L1630,2515L1785,2360L2070,2360L2070,2670L1785,2670Z" style="fill:rgb(220,60,77);fill-rule:nonzero;"/>
        </g>
        <g transform="matrix(1.57977,-2.28412e-17,-2.28412e-17,1.39326,-890.447,-2010.91)">
            <path d="M2247,2500C2217,2476 2204,2408 2215,2329C2226,2252 2243,2240 2343,2240C2394,2240 2431,2245 2438,2252C2445,2259 2450,2294 2450,2337L2450,2411L2383,2408C2321,2405 2315,2403 2312,2383C2309,2362 2313,2360 2354,2360C2400,2360 2400,2360 2400,2325L2400,2290L2340,2290C2284,2290 2279,2292 2270,2316C2264,2330 2260,2359 2260,2380C2260,2401 2264,2430 2270,2444C2279,2469 2282,2470 2365,2470C2449,2470 2450,2470 2450,2495C2450,2520 2449,2520 2361,2520C2288,2520 2268,2517 2247,2500Z" style="fill-rule:nonzero;"/>
        </g>
        <g transform="matrix(0.735849,1.15533e-18,1.15533e-18,0.745283,596.792,-553.113)">
            <path d="M1545,2430L1390,2275L1390,1990L1700,1990L1700,2275L1545,2430Z" style="fill:rgb(220,60,77);fill-rule:nonzero;"/>
        </g>
    </g>
</svg>
