<?xml version="1.0" encoding="UTF-8" standalone="no"?>
<!DOCTYPE svg PUBLIC "-//W3C//DTD SVG 1.1//EN" "http://www.w3.org/Graphics/SVG/1.1/DTD/svg11.dtd">
<svg width="100%" height="100%" viewBox="0 0 314 119" version="1.1" xmlns="http://www.w3.org/2000/svg" xmlns:xlink="http://www.w3.org/1999/xlink" xml:space="preserve" xmlns:serif="http://www.serif.com/" style="fill-rule:evenodd;clip-rule:evenodd;stroke-linejoin:round;stroke-miterlimit:2;">
    <g transform="matrix(0.1,0,0,-0.1,-95,184)">
        <g transform="matrix(1,0,0,1,-10,-1260)">
            <path d="M1390,3050L1390,2755L1545,2600L1700,2755L1700,3050L1390,3050Z" style="fill:rgb(220,60,77);fill-rule:nonzero;"/>
        </g>
        <g transform="matrix(1,0,0,1,-10,-1280)">
            <path d="M2220,2864C2214,2849 2211,2787 2212,2726C2215,2620 2216,2615 2237,2612C2259,2609 2259,2612 2262,2717L2265,2825L2325,2720C2383,2618 2386,2615 2420,2615L2455,2615L2461,2891L2438,2888C2416,2885 2415,2880 2410,2785L2405,2685L2349,2785C2298,2876 2290,2885 2262,2888C2235,2891 2228,2887 2220,2864Z" style="fill:white;fill-rule:nonzero;"/>
        </g>
        <g transform="matrix(1,0,0,1,-10,-1280)">
            <path d="M2530,2775C2530,2665 2531,2658 2555,2635C2576,2613 2588,2610 2650,2610C2712,2610 2724,2613 2745,2635C2769,2658 2770,2665 2770,2775C2770,2890 2770,2891 2748,2888C2726,2885 2725,2880 2720,2775L2715,2665L2585,2665L2582,2778C2579,2890 2579,2890 2555,2890L2530,2890L2530,2775Z" style="fill:white;fill-rule:nonzero;"/>
        </g>
        <g transform="matrix(1,0,0,1,-10,-1280)">
            <path d="M2840,2890L2840,2840L3050,2840L3050,2890L2840,2890Z" style="fill:white;fill-rule:nonzero;"/>
        </g>
        <g transform="matrix(1,0,0,1,-10,-1280)">
            <path d="M2858,2769C2829,2752 2833,2666 2865,2635C2887,2613 2897,2610 2970,2610L3050,2610L3050,2669L2973,2672C2896,2675 2895,2675 2892,2703L2889,2730L2970,2730C3049,2730 3051,2731 3048,2753C3045,2774 3040,2775 2960,2777C2913,2779 2867,2775 2858,2769Z" style="fill:white;fill-rule:nonzero;"/>
        </g>
        <g transform="matrix(1,0,0,1,-10,-1260)">
            <path d="M1010,2670L1010,2360L1305,2360L1460,2515L1305,2670L1010,2670Z" style="fill:rgb(220,60,77);fill-rule:nonzero;"/>
        </g>
        <g transform="matrix(1,0,0,1,-10,-1260)">
            <path d="M1785,2670L1630,2515L1785,2360L2070,2360L2070,2670L1785,2670Z" style="fill:rgb(220,60,77);fill-rule:nonzero;"/>
        </g>
        <g transform="matrix(1,0,0,1,-10,-1280)">
            <path d="M2247,2500C2217,2476 2204,2408 2215,2329C2226,2252 2243,2240 2343,2240C2394,2240 2431,2245 2438,2252C2445,2259 2450,2294 2450,2337L2450,2411L2383,2408C2321,2405 2315,2403 2312,2383C2309,2362 2313,2360 2354,2360C2400,2360 2400,2360 2400,2325L2400,2290L2340,2290C2284,2290 2279,2292 2270,2316C2264,2330 2260,2359 2260,2380C2260,2401 2264,2430 2270,2444C2279,2469 2282,2470 2365,2470C2449,2470 2450,2470 2450,2495C2450,2520 2449,2520 2361,2520C2288,2520 2268,2517 2247,2500Z" style="fill:white;fill-rule:nonzero;"/>
        </g>
        <g transform="matrix(1,0,0,1,-10,-1280)">
            <path d="M2633,2512C2624,2506 2520,2261 2520,2245C2520,2242 2531,2240 2545,2240C2562,2240 2574,2248 2582,2265C2590,2284 2601,2290 2624,2290C2670,2290 2685,2303 2671,2329C2664,2340 2650,2350 2640,2350C2629,2350 2620,2351 2620,2353C2620,2370 2654,2449 2659,2445C2663,2443 2684,2396 2706,2340C2742,2247 2747,2240 2772,2240L2800,2240L2781,2288C2712,2462 2697,2496 2688,2508C2676,2521 2651,2524 2633,2512Z" style="fill:white;fill-rule:nonzero;"/>
        </g>
        <g transform="matrix(1,0,0,1,-10,-1280)">
            <path d="M2872,2508C2864,2500 2860,2457 2860,2368L2860,2240L2910,2240L2910,2348L2911,2455L2948,2365C2978,2292 2990,2274 3008,2272C3042,2267 3054,2282 3086,2366L3115,2441L3120,2343C3125,2250 3126,2245 3148,2242L3171,2239L3165,2515L3134,2518C3096,2522 3090,2514 3055,2422C3039,2382 3023,2347 3020,2345C3016,2343 2998,2380 2979,2428C2947,2508 2942,2515 2915,2518C2898,2520 2879,2515 2872,2508Z" style="fill:white;fill-rule:nonzero;"/>
        </g>
        <g transform="matrix(1,0,0,1,-10,-1280)">
            <path d="M3240,2520L3240,2470L3450,2470L3450,2520L3240,2520Z" style="fill:white;fill-rule:nonzero;"/>
        </g>
        <g transform="matrix(1,0,0,1,-10,-1280)">
            <path d="M3520,2495C3520,2470 3521,2470 3604,2470C3682,2470 3689,2468 3696,2448C3706,2414 3677,2400 3593,2400L3520,2400L3520,2319C3520,2241 3521,2239 3543,2242C3562,2245 3565,2252 3568,2298L3571,2350L3605,2350C3637,2350 3643,2345 3671,2295C3695,2252 3707,2240 3726,2240C3756,2240 3756,2251 3724,2306L3698,2350L3721,2368C3738,2382 3743,2398 3744,2434C3745,2506 3723,2520 3609,2520C3521,2520 3520,2520 3520,2495Z" style="fill:white;fill-rule:nonzero;"/>
        </g>
        <g transform="matrix(1,0,0,1,-10,-1280)">
            <path d="M3840,2500C3818,2478 3814,2428 3830,2386C3838,2363 3845,2361 3912,2358L3985,2355L3985,2295L3903,2292C3822,2289 3820,2289 3820,2265C3820,2240 3821,2240 3915,2240C4005,2240 4010,2241 4026,2265C4044,2293 4041,2373 4021,2393C4015,2399 3978,2406 3939,2408C3870,2412 3869,2413 3872,2439C3875,2464 3877,2465 3953,2468C4027,2471 4030,2472 4030,2495C4030,2520 4029,2520 3945,2520C3873,2520 3857,2517 3840,2500Z" style="fill:white;fill-rule:nonzero;"/>
        </g>
        <g transform="matrix(1,0,0,1,-10,-1260)">
            <path d="M1545,2430L1390,2275L1390,1990L1700,1990L1700,2275L1545,2430Z" style="fill:rgb(220,60,77);fill-rule:nonzero;"/>
        </g>
        <g transform="matrix(1,0,0,1,-10,-1280)">
            <path d="M3258,2399C3229,2382 3233,2296 3265,2265C3287,2243 3297,2240 3370,2240L3450,2240L3450,2299L3373,2302C3296,2305 3295,2305 3292,2333L3289,2360L3370,2360C3449,2360 3451,2361 3448,2383C3445,2404 3440,2405 3360,2407C3313,2409 3267,2405 3258,2399Z" style="fill:white;fill-rule:nonzero;"/>
        </g>
    </g>
</svg>
